<svg xmlns="http://www.w3.org/2000/svg" width="375" height="812" viewBox="0 0 375 812" fill="none">
<g clip-path="url(#clip0_0_68)">
<rect width="375" height="812" fill="white"/>
<rect width="375" height="812" fill="white"/>
<rect x="17" y="177" width="341" height="50" fill="white" stroke="black" stroke-width="2"/>
<text fill="black" xml:space="preserve" style="white-space: pre" font-family="Roboto" font-size="15" letter-spacing="0em"><tspan x="33" y="207.127">jane@example.com</tspan></text>
<rect x="17" y="245" width="341" height="50" fill="white" stroke="black" stroke-width="2"/>
<text fill="black" xml:space="preserve" style="white-space: pre" font-family="Roboto" font-size="15" letter-spacing="0em"><tspan x="33" y="275.127">••••••••••••</tspan></text>
<rect x="17" y="313" width="341" height="50" rx="5" fill="black" stroke="black" stroke-width="2"/>
<text fill="white" xml:space="preserve" style="white-space: pre" font-family="Roboto" font-size="13" font-weight="900" letter-spacing="0.04em"><tspan x="164.599" y="342.943">LOG IN</tspan></text>
<g filter="url(#filter0_b_0_68)">
<rect y="521" width="375" height="291" fill="#D0D3D9" fill-opacity="0.9"/>
</g>
<rect x="120" y="799" width="135" height="5" rx="2.5" fill="black"/>
<path fill-rule="evenodd" clip-rule="evenodd" d="M328 771.667C328 771.04 328.373 770.667 329 770.667C329.294 770.667 329.667 771.04 329.667 771.667C329.667 776.858 331.571 779.333 335.667 779.333C339.429 779.333 341.333 776.858 341.333 771.667C341.333 771.04 341.706 770.667 342.333 770.667C342.627 770.667 343 771.04 343 771.667C343 777.411 340.695 780.681 336.333 780.978V783.333H339.5C339.96 783.333 340.333 783.706 340.333 784.167C340.333 784.627 339.96 785 339.5 785H336.333H334.667H331.5C331.04 785 330.667 784.627 330.667 784.167C330.667 783.706 331.04 783.333 331.5 783.333H334.667V780.955C330.21 780.543 328 777.291 328 771.667ZM335.5 761.667C333.935 761.667 332.667 762.935 332.667 764.5V773.5C332.667 775.065 333.935 776.333 335.5 776.333C337.065 776.333 338.333 775.065 338.333 773.5V764.5C338.333 762.935 337.065 761.667 335.5 761.667ZM335.5 760C337.985 760 340 762.015 340 764.5V773.5C340 775.985 337.985 778 335.5 778C333.015 778 331 775.985 331 773.5V764.5C331 762.015 333.015 760 335.5 760Z" fill="#50555C"/>
<path fill-rule="evenodd" clip-rule="evenodd" d="M39 758C46.1797 758 52 763.82 52 771C52 778.18 46.1797 784 39 784C31.8203 784 26 778.18 26 771C26 763.82 31.8203 758 39 758ZM39 759.514C45.3431 759.515 50.4847 764.658 50.4842 771.001C50.4837 777.344 45.3414 782.486 38.9983 782.486C32.6552 782.485 27.5132 777.343 27.5132 771C27.5133 767.954 28.7236 765.032 30.8778 762.878C33.032 760.724 35.9537 759.514 39 759.514ZM34.8875 765.361C34.4856 765.356 34.0987 765.513 33.8132 765.796C33.5278 766.079 33.3677 766.464 33.3687 766.866C33.3687 767.705 34.0487 768.385 34.8875 768.385C35.7262 768.385 36.4062 767.705 36.4062 766.866C36.4072 766.464 36.2471 766.079 35.9617 765.796C35.6762 765.513 35.2893 765.356 34.8875 765.361ZM38.9963 780.303C34.6707 780.437 30.748 777.025 29.9963 773.303C29.8666 772.404 30.9559 772.186 31.668 772.359C34.0501 773.047 36.5205 773.382 39 773.353C41.4739 773.382 43.9387 773.048 46.3158 772.362C47.008 772.186 48.0827 772.385 47.9857 773.303C47.3046 776.98 43.3608 780.437 38.9963 780.303ZM45.1081 773.827C45.1009 773.831 45.3297 773.756 45.3229 773.759C43.2673 774.325 41.1426 774.6 39.1736 774.672C36.4666 774.575 34.1913 774.292 32.6255 773.73C31.4902 773.392 31.708 774.728 32.5058 775.137C34.547 776.066 36.7678 776.535 39.1736 776.672C41.678 776.509 44.055 775.888 45.6251 775.085C46.3681 774.608 46.515 773.327 45.3134 773.759C45.2458 773.785 45.1773 773.805 45.1081 773.827ZM43.121 765.361C42.7192 765.356 42.3322 765.513 42.0467 765.796C41.7612 766.079 41.601 766.464 41.6019 766.866C41.5939 767.414 41.8817 767.924 42.3549 768.2C42.8281 768.476 43.4135 768.476 43.8868 768.2C44.36 767.924 44.6477 767.414 44.6397 766.866C44.6407 766.464 44.4806 766.079 44.1951 765.796C43.9097 765.513 43.5228 765.357 43.121 765.361Z" fill="#50555C"/>
<g filter="url(#filter1_d_0_68)">
<rect x="285" y="691" width="87" height="42" rx="5" fill="#ACB3BF"/>
</g>
<text fill="black" xml:space="preserve" style="white-space: pre" font-family="SF Pro Display" font-size="16" letter-spacing="0.6px"><tspan x="307.305" y="717.188">return</tspan></text>
<g filter="url(#filter2_d_0_68)">
<rect x="96" y="691" width="183" height="42" rx="5" fill="white"/>
</g>
<text fill="black" xml:space="preserve" style="white-space: pre" font-family="SF Pro Display" font-size="16" letter-spacing="0.6px"><tspan x="167.05" y="717.188">space</tspan></text>
<g filter="url(#filter3_d_0_68)">
<rect x="3" y="691" width="87" height="42" rx="5" fill="#ACB3BF"/>
</g>
<text fill="black" xml:space="preserve" style="white-space: pre" font-family="SF Pro Display" font-size="16" letter-spacing="0.6px"><tspan x="34.0875" y="718.188">123</tspan></text>
<g filter="url(#filter4_d_0_68)">
<rect x="330" y="637" width="42" height="42" rx="5" fill="#ACB3BF"/>
</g>
<path d="M347.045 651.673C347.68 651.035 348.543 650.676 349.443 650.676H359.255C360.937 650.676 362.299 652.039 362.299 653.721V663.279C362.299 664.961 360.937 666.324 359.255 666.324H349.443C348.543 666.324 347.68 665.965 347.045 665.327L340.966 659.216C340.572 658.82 340.572 658.18 340.966 657.784L347.045 651.673Z" stroke="black" stroke-width="1.35294"/>
<path fill-rule="evenodd" clip-rule="evenodd" d="M357.398 655.299C357.662 655.563 357.662 655.992 357.398 656.256L354.988 658.665L357.398 661.074C357.662 661.338 357.662 661.767 357.398 662.031C357.133 662.295 356.705 662.295 356.441 662.031L354.032 659.622L351.623 662.031C351.358 662.295 350.93 662.295 350.666 662.031C350.402 661.767 350.402 661.338 350.666 661.074L353.075 658.665L350.666 656.256C350.402 655.992 350.402 655.563 350.666 655.299C350.93 655.035 351.358 655.035 351.623 655.299L354.032 657.708L356.441 655.299C356.705 655.035 357.133 655.035 357.398 655.299Z" fill="black"/>
<g filter="url(#filter5_d_0_68)">
<rect x="3" y="637" width="42" height="42" rx="5" fill="#ACB3BF"/>
</g>
<mask id="path-22-inside-1_0_68" fill="white">
<path fill-rule="evenodd" clip-rule="evenodd" d="M24.8812 649.642C24.4875 649.23 23.8302 649.23 23.4364 649.642L14.6111 658.862C14.0024 659.498 14.4531 660.554 15.3335 660.554H19.3255V663.887C19.3255 664.821 19.3255 665.287 19.5071 665.644C19.6669 665.957 19.9219 666.212 20.2355 666.372C20.592 666.554 21.0587 666.554 21.9922 666.554H26.3255C27.2589 666.554 27.7256 666.554 28.0821 666.372C28.3957 666.212 28.6507 665.957 28.8105 665.644C28.9922 665.287 28.9922 664.821 28.9922 663.887V660.554H32.9841C33.8645 660.554 34.3153 659.498 33.7065 658.862L24.8812 649.642Z"/>
</mask>
<path d="M23.4364 649.642L22.4732 648.72L23.4364 649.642ZM24.8812 649.642L23.918 650.564L24.8812 649.642ZM14.6111 658.862L13.6479 657.94H13.6479L14.6111 658.862ZM19.3255 660.554H20.6588V659.22H19.3255V660.554ZM19.5071 665.644L20.6951 665.038L20.6951 665.038L19.5071 665.644ZM20.2355 666.372L19.6302 667.56L19.6302 667.56L20.2355 666.372ZM28.0821 666.372L28.6875 667.56L28.6875 667.56L28.0821 666.372ZM28.8105 665.644L27.6225 665.038L27.6225 665.038L28.8105 665.644ZM28.9922 660.554V659.22H27.6588V660.554H28.9922ZM33.7065 658.862L34.6697 657.94V657.94L33.7065 658.862ZM24.3996 650.564C24.2684 650.701 24.0493 650.701 23.918 650.564L25.8445 648.72C24.9257 647.76 23.3919 647.76 22.4732 648.72L24.3996 650.564ZM15.5743 659.784L24.3996 650.564L22.4732 648.72L13.6479 657.94L15.5743 659.784ZM15.3335 659.22C15.627 659.22 15.7773 659.572 15.5743 659.784L13.6479 657.94C12.2275 659.424 13.2793 661.887 15.3335 661.887V659.22ZM19.3255 659.22H15.3335V661.887H19.3255V659.22ZM20.6588 663.887V660.554H17.9922V663.887H20.6588ZM20.6951 665.038C20.7161 665.079 20.6931 665.069 20.6771 664.873C20.6599 664.662 20.6588 664.376 20.6588 663.887H17.9922C17.9922 664.332 17.9911 664.746 18.0193 665.09C18.0487 665.451 18.1166 665.852 18.3191 666.249L20.6951 665.038ZM20.8408 665.184C20.7781 665.152 20.7271 665.101 20.6951 665.038L18.3191 666.249C18.6068 666.814 19.0657 667.272 19.6302 667.56L20.8408 665.184ZM21.9922 665.22C21.5034 665.22 21.2171 665.219 21.0061 665.202C20.8106 665.186 20.7998 665.163 20.8408 665.184L19.6302 667.56C20.0277 667.763 20.4285 667.831 20.7889 667.86C21.1337 667.888 21.5474 667.887 21.9922 667.887V665.22ZM26.3255 665.22H21.9922V667.887H26.3255V665.22ZM27.4768 665.184C27.5178 665.163 27.507 665.186 27.3116 665.202C27.1005 665.219 26.8142 665.22 26.3255 665.22V667.887C26.7702 667.887 27.1839 667.888 27.5287 667.86C27.8891 667.831 28.2899 667.763 28.6875 667.56L27.4768 665.184ZM27.6225 665.038C27.5905 665.101 27.5395 665.152 27.4768 665.184L28.6875 667.56C29.2519 667.272 29.7109 666.814 29.9985 666.249L27.6225 665.038ZM27.6588 663.887C27.6588 664.376 27.6578 664.662 27.6405 664.873C27.6246 665.069 27.6016 665.079 27.6225 665.038L29.9985 666.249C30.2011 665.852 30.2689 665.451 30.2983 665.09C30.3265 664.746 30.3255 664.332 30.3255 663.887H27.6588ZM27.6588 660.554V663.887H30.3255V660.554H27.6588ZM32.9841 659.22H28.9922V661.887H32.9841V659.22ZM32.7433 659.784C32.5404 659.572 32.6906 659.22 32.9841 659.22V661.887C35.0383 661.887 36.0902 659.424 34.6697 657.94L32.7433 659.784ZM23.918 650.564L32.7433 659.784L34.6697 657.94L25.8445 648.72L23.918 650.564Z" fill="black" mask="url(#path-22-inside-1_0_68)"/>
<g filter="url(#filter6_d_0_68)">
<rect x="285" y="637" width="31" height="42" rx="5" fill="white"/>
</g>
<text fill="black" xml:space="preserve" style="white-space: pre" font-family="SF Pro Display" font-size="25" letter-spacing="0px"><tspan x="291.1" y="663.887">m</tspan></text>
<g filter="url(#filter7_d_0_68)">
<rect x="247" y="637" width="31" height="42" rx="5" fill="white"/>
</g>
<text fill="black" xml:space="preserve" style="white-space: pre" font-family="SF Pro Display" font-size="25" letter-spacing="0px"><tspan x="257.018" y="663.887">n</tspan></text>
<g filter="url(#filter8_d_0_68)">
<rect x="210" y="637" width="31" height="42" rx="5" fill="white"/>
</g>
<text fill="black" xml:space="preserve" style="white-space: pre" font-family="SF Pro Display" font-size="25" letter-spacing="0px"><tspan x="219.176" y="663.887">b</tspan></text>
<g filter="url(#filter9_d_0_68)">
<rect x="172" y="637" width="31" height="42" rx="5" fill="white"/>
</g>
<text fill="black" xml:space="preserve" style="white-space: pre" font-family="SF Pro Display" font-size="25" letter-spacing="0px"><tspan x="182.226" y="663.887">v</tspan></text>
<g filter="url(#filter10_d_0_68)">
<rect x="134" y="637" width="31" height="42" rx="5" fill="white"/>
</g>
<text fill="black" xml:space="preserve" style="white-space: pre" font-family="SF Pro Display" font-size="25" letter-spacing="0px"><tspan x="144.323" y="663.887">c</tspan></text>
<g filter="url(#filter11_d_0_68)">
<rect x="97" y="637" width="31" height="42" rx="5" fill="white"/>
</g>
<text fill="black" xml:space="preserve" style="white-space: pre" font-family="SF Pro Display" font-size="25" letter-spacing="0px"><tspan x="107.373" y="663.887">x</tspan></text>
<g filter="url(#filter12_d_0_68)">
<rect x="59" y="637" width="31" height="42" rx="5" fill="white"/>
</g>
<text fill="black" xml:space="preserve" style="white-space: pre" font-family="SF Pro Display" font-size="25" letter-spacing="0px"><tspan x="69.3115" y="663.887">z</tspan></text>
<g filter="url(#filter13_d_0_68)">
<rect x="322" y="583" width="31" height="42" rx="5" fill="white"/>
</g>
<text fill="black" xml:space="preserve" style="white-space: pre" font-family="SF Pro Display" font-size="25" letter-spacing="0px"><tspan x="336.193" y="609.887">l</tspan></text>
<g filter="url(#filter14_d_0_68)">
<rect x="284" y="583" width="31" height="42" rx="5" fill="white"/>
</g>
<text fill="black" xml:space="preserve" style="white-space: pre" font-family="SF Pro Display" font-size="25" letter-spacing="0px"><tspan x="294.153" y="609.887">k</tspan></text>
<g filter="url(#filter15_d_0_68)">
<rect x="247" y="583" width="31" height="42" rx="5" fill="white"/>
</g>
<text fill="black" xml:space="preserve" style="white-space: pre" font-family="SF Pro Display" font-size="25" letter-spacing="0px"><tspan x="261.193" y="609.887">j</tspan></text>
<g filter="url(#filter16_d_0_68)">
<rect x="209" y="583" width="31" height="42" rx="5" fill="white"/>
</g>
<text fill="black" xml:space="preserve" style="white-space: pre" font-family="SF Pro Display" font-size="25" letter-spacing="0px"><tspan x="218.396" y="609.887">h</tspan></text>
<g filter="url(#filter17_d_0_68)">
<rect x="172" y="583" width="31" height="42" rx="5" fill="white"/>
</g>
<text fill="black" xml:space="preserve" style="white-space: pre" font-family="SF Pro Display" font-size="25" letter-spacing="0px"><tspan x="181.237" y="609.887">g</tspan></text>
<g filter="url(#filter18_d_0_68)">
<rect x="134" y="583" width="31" height="42" rx="5" fill="white"/>
</g>
<text fill="black" xml:space="preserve" style="white-space: pre" font-family="SF Pro Display" font-size="25" letter-spacing="0px"><tspan x="146.448" y="609.887">f</tspan></text>
<g filter="url(#filter19_d_0_68)">
<rect x="97" y="583" width="31" height="42" rx="5" fill="white"/>
</g>
<text fill="black" xml:space="preserve" style="white-space: pre" font-family="SF Pro Display" font-size="25" letter-spacing="0px"><tspan x="106.164" y="609.887">d</tspan></text>
<g filter="url(#filter20_d_0_68)">
<rect x="59" y="583" width="31" height="42" rx="5" fill="white"/>
</g>
<text fill="black" xml:space="preserve" style="white-space: pre" font-family="SF Pro Display" font-size="25" letter-spacing="0px"><tspan x="69.3359" y="609.887">s</tspan></text>
<g filter="url(#filter21_d_0_68)">
<rect x="22" y="583" width="31" height="42" rx="5" fill="white"/>
</g>
<text fill="black" xml:space="preserve" style="white-space: pre" font-family="SF Pro Display" font-size="25" letter-spacing="0px"><tspan x="32.311" y="609.887">a</tspan></text>
<g filter="url(#filter22_d_0_68)">
<rect x="341" y="529" width="31" height="42" rx="5" fill="white"/>
</g>
<text fill="black" xml:space="preserve" style="white-space: pre" font-family="SF Pro Display" font-size="25" letter-spacing="0px"><tspan x="350.237" y="555.887">p</tspan></text>
<g filter="url(#filter23_d_0_68)">
<rect x="303" y="529" width="31" height="42" rx="5" fill="white"/>
</g>
<text fill="black" xml:space="preserve" style="white-space: pre" font-family="SF Pro Display" font-size="25" letter-spacing="0px"><tspan x="312.457" y="555.887">o</tspan></text>
<g filter="url(#filter24_d_0_68)">
<rect x="266" y="529" width="31" height="42" rx="5" fill="white"/>
</g>
<text fill="black" xml:space="preserve" style="white-space: pre" font-family="SF Pro Display" font-size="25" letter-spacing="0px"><tspan x="280.193" y="555.887">i</tspan></text>
<g filter="url(#filter25_d_0_68)">
<rect x="228" y="529" width="31" height="42" rx="5" fill="white"/>
</g>
<text fill="black" xml:space="preserve" style="white-space: pre" font-family="SF Pro Display" font-size="25" letter-spacing="0px"><tspan x="238.018" y="555.887">u</tspan></text>
<g filter="url(#filter26_d_0_68)">
<rect x="191" y="529" width="31" height="42" rx="5" fill="white"/>
</g>
<text fill="black" xml:space="preserve" style="white-space: pre" font-family="SF Pro Display" font-size="25" letter-spacing="0px"><tspan x="201.202" y="555.887">y</tspan></text>
<g filter="url(#filter27_d_0_68)">
<rect x="153" y="529" width="31" height="42" rx="5" fill="white"/>
</g>
<text fill="black" xml:space="preserve" style="white-space: pre" font-family="SF Pro Display" font-size="25" letter-spacing="0px"><tspan x="165.448" y="555.887">t</tspan></text>
<g filter="url(#filter28_d_0_68)">
<rect x="116" y="529" width="31" height="42" rx="5" fill="white"/>
</g>
<text fill="black" xml:space="preserve" style="white-space: pre" font-family="SF Pro Display" font-size="25" letter-spacing="0px"><tspan x="128.24" y="555.887">r</tspan></text>
<g filter="url(#filter29_d_0_68)">
<rect x="78" y="529" width="31" height="42" rx="5" fill="white"/>
</g>
<text fill="black" xml:space="preserve" style="white-space: pre" font-family="SF Pro Display" font-size="25" letter-spacing="0px"><tspan x="88.1523" y="555.887">e</tspan></text>
<g filter="url(#filter30_d_0_68)">
<rect x="41" y="529" width="31" height="42" rx="5" fill="white"/>
</g>
<text fill="black" xml:space="preserve" style="white-space: pre" font-family="SF Pro Display" font-size="25" letter-spacing="0px"><tspan x="48.272" y="555.887">w</tspan></text>
<g filter="url(#filter31_d_0_68)">
<rect x="3" y="529" width="31" height="42" rx="5" fill="white"/>
</g>
<text fill="black" xml:space="preserve" style="white-space: pre" font-family="SF Pro Display" font-size="25" letter-spacing="0px"><tspan x="12.2251" y="555.887">q</tspan></text>
<text fill="black" xml:space="preserve" style="white-space: pre" font-family="Comfortaa" font-size="36" letter-spacing="-0.015em"><tspan x="16" y="135.646">Log in</tspan></text>
<path fill-rule="evenodd" clip-rule="evenodd" d="M17.9142 64.3536L20.5607 67L19.8536 67.7071L16.3536 64.2071L16 63.8536L16.3536 63.5L19.8536 60L20.5607 60.7071L17.9142 63.3536H21.7071C25.2832 63.3536 28.2071 66.2774 28.2071 69.8536L28.2071 71.3536H27.2071L27.2071 69.8536C27.2071 66.8297 24.731 64.3536 21.7071 64.3536H17.9142Z" fill="black" fill-opacity="0.8"/>
<rect opacity="0.35" x="336.5" y="17.8333" width="21" height="10.3333" rx="2.16667" stroke="black"/>
<path opacity="0.4" d="M359 21V25C359.808 24.6612 360.333 23.8731 360.333 23C360.333 22.1269 359.808 21.3388 359 21Z" fill="black"/>
<rect x="338" y="19.3333" width="18" height="7.33333" rx="1.33333" fill="black"/>
<path fill-rule="evenodd" clip-rule="evenodd" d="M323.334 19.5739C325.558 19.574 327.698 20.4117 329.31 21.9138C329.432 22.0298 329.626 22.0284 329.745 21.9106L330.906 20.7627C330.967 20.703 331 20.6221 331 20.5379C330.999 20.4537 330.965 20.3731 330.903 20.3141C326.671 16.3398 319.995 16.3398 315.763 20.3141C315.702 20.3731 315.667 20.4536 315.667 20.5378C315.666 20.622 315.7 20.7029 315.76 20.7627L316.921 21.9106C317.041 22.0285 317.235 22.03 317.356 21.9138C318.969 20.4116 321.109 19.5739 323.334 19.5739ZM323.332 23.2995C324.556 23.2994 325.736 23.756 326.643 24.5805C326.766 24.6976 326.959 24.695 327.078 24.5748L328.239 23.3977C328.3 23.3359 328.334 23.2522 328.333 23.1651C328.332 23.0781 328.297 22.995 328.234 22.9345C325.472 20.3552 321.194 20.3552 318.432 22.9345C318.37 22.995 318.334 23.0781 318.333 23.1652C318.332 23.2523 318.366 23.336 318.428 23.3977L319.588 24.5748C319.707 24.695 319.901 24.6976 320.023 24.5805C320.93 23.7565 322.109 23.3 323.332 23.2995ZM325.666 26.0231C325.668 26.1085 325.634 26.1909 325.572 26.2508L323.557 28.2419C323.498 28.3004 323.417 28.3333 323.333 28.3333C323.249 28.3333 323.169 28.3004 323.11 28.2419L321.095 26.2508C321.032 26.1908 320.998 26.1084 321 26.023C321.002 25.9375 321.04 25.8566 321.104 25.7993C322.391 24.7336 324.276 24.7336 325.562 25.7993C325.627 25.8567 325.665 25.9376 325.666 26.0231Z" fill="black"/>
<path fill-rule="evenodd" clip-rule="evenodd" d="M310.667 18.6667C310.667 18.1144 310.219 17.6667 309.667 17.6667H308.667C308.114 17.6667 307.667 18.1144 307.667 18.6667V27.3333C307.667 27.8856 308.114 28.3333 308.667 28.3333H309.667C310.219 28.3333 310.667 27.8856 310.667 27.3333V18.6667ZM304 20H305C305.552 20 306 20.4477 306 21V27.3333C306 27.8856 305.552 28.3333 305 28.3333H304C303.448 28.3333 303 27.8856 303 27.3333V21C303 20.4477 303.448 20 304 20ZM300.333 22.3333H299.333C298.781 22.3333 298.333 22.781 298.333 23.3333V27.3333C298.333 27.8856 298.781 28.3333 299.333 28.3333H300.333C300.885 28.3333 301.333 27.8856 301.333 27.3333V23.3333C301.333 22.781 300.885 22.3333 300.333 22.3333ZM296.667 25.3333C296.667 24.781 296.219 24.3333 295.667 24.3333H294.667C294.114 24.3333 293.667 24.781 293.667 25.3333V27.3333C293.667 27.8856 294.114 28.3333 294.667 28.3333H295.667C296.219 28.3333 296.667 27.8856 296.667 27.3333V25.3333Z" fill="black"/>
<text fill="black" xml:space="preserve" style="white-space: pre" font-family="SF Pro Text" font-size="15" letter-spacing="-0.333333px"><tspan x="32.2002" y="28.332">9:27</tspan></text>
</g>
<defs>
<filter id="filter0_b_0_68" x="-81.5485" y="439.452" width="538.097" height="454.097" filterUnits="userSpaceOnUse" color-interpolation-filters="sRGB">
<feFlood flood-opacity="0" result="BackgroundImageFix"/>
<feGaussianBlur in="BackgroundImageFix" stdDeviation="40.7742"/>
<feComposite in2="SourceAlpha" operator="in" result="effect1_backgroundBlur_0_68"/>
<feBlend mode="normal" in="SourceGraphic" in2="effect1_backgroundBlur_0_68" result="shape"/>
</filter>
<filter id="filter1_d_0_68" x="285" y="691" width="87" height="43" filterUnits="userSpaceOnUse" color-interpolation-filters="sRGB">
<feFlood flood-opacity="0" result="BackgroundImageFix"/>
<feColorMatrix in="SourceAlpha" type="matrix" values="0 0 0 0 0 0 0 0 0 0 0 0 0 0 0 0 0 0 127 0" result="hardAlpha"/>
<feOffset dy="1"/>
<feColorMatrix type="matrix" values="0 0 0 0 0 0 0 0 0 0 0 0 0 0 0 0 0 0 0.35 0"/>
<feBlend mode="normal" in2="BackgroundImageFix" result="effect1_dropShadow_0_68"/>
<feBlend mode="normal" in="SourceGraphic" in2="effect1_dropShadow_0_68" result="shape"/>
</filter>
<filter id="filter2_d_0_68" x="96" y="691" width="183" height="43" filterUnits="userSpaceOnUse" color-interpolation-filters="sRGB">
<feFlood flood-opacity="0" result="BackgroundImageFix"/>
<feColorMatrix in="SourceAlpha" type="matrix" values="0 0 0 0 0 0 0 0 0 0 0 0 0 0 0 0 0 0 127 0" result="hardAlpha"/>
<feOffset dy="1"/>
<feColorMatrix type="matrix" values="0 0 0 0 0 0 0 0 0 0 0 0 0 0 0 0 0 0 0.35 0"/>
<feBlend mode="normal" in2="BackgroundImageFix" result="effect1_dropShadow_0_68"/>
<feBlend mode="normal" in="SourceGraphic" in2="effect1_dropShadow_0_68" result="shape"/>
</filter>
<filter id="filter3_d_0_68" x="3" y="691" width="87" height="43" filterUnits="userSpaceOnUse" color-interpolation-filters="sRGB">
<feFlood flood-opacity="0" result="BackgroundImageFix"/>
<feColorMatrix in="SourceAlpha" type="matrix" values="0 0 0 0 0 0 0 0 0 0 0 0 0 0 0 0 0 0 127 0" result="hardAlpha"/>
<feOffset dy="1"/>
<feColorMatrix type="matrix" values="0 0 0 0 0 0 0 0 0 0 0 0 0 0 0 0 0 0 0.35 0"/>
<feBlend mode="normal" in2="BackgroundImageFix" result="effect1_dropShadow_0_68"/>
<feBlend mode="normal" in="SourceGraphic" in2="effect1_dropShadow_0_68" result="shape"/>
</filter>
<filter id="filter4_d_0_68" x="330" y="637" width="42" height="43" filterUnits="userSpaceOnUse" color-interpolation-filters="sRGB">
<feFlood flood-opacity="0" result="BackgroundImageFix"/>
<feColorMatrix in="SourceAlpha" type="matrix" values="0 0 0 0 0 0 0 0 0 0 0 0 0 0 0 0 0 0 127 0" result="hardAlpha"/>
<feOffset dy="1"/>
<feColorMatrix type="matrix" values="0 0 0 0 0 0 0 0 0 0 0 0 0 0 0 0 0 0 0.35 0"/>
<feBlend mode="normal" in2="BackgroundImageFix" result="effect1_dropShadow_0_68"/>
<feBlend mode="normal" in="SourceGraphic" in2="effect1_dropShadow_0_68" result="shape"/>
</filter>
<filter id="filter5_d_0_68" x="3" y="637" width="42" height="43" filterUnits="userSpaceOnUse" color-interpolation-filters="sRGB">
<feFlood flood-opacity="0" result="BackgroundImageFix"/>
<feColorMatrix in="SourceAlpha" type="matrix" values="0 0 0 0 0 0 0 0 0 0 0 0 0 0 0 0 0 0 127 0" result="hardAlpha"/>
<feOffset dy="1"/>
<feColorMatrix type="matrix" values="0 0 0 0 0 0 0 0 0 0 0 0 0 0 0 0 0 0 0.35 0"/>
<feBlend mode="normal" in2="BackgroundImageFix" result="effect1_dropShadow_0_68"/>
<feBlend mode="normal" in="SourceGraphic" in2="effect1_dropShadow_0_68" result="shape"/>
</filter>
<filter id="filter6_d_0_68" x="285" y="637" width="31" height="43" filterUnits="userSpaceOnUse" color-interpolation-filters="sRGB">
<feFlood flood-opacity="0" result="BackgroundImageFix"/>
<feColorMatrix in="SourceAlpha" type="matrix" values="0 0 0 0 0 0 0 0 0 0 0 0 0 0 0 0 0 0 127 0" result="hardAlpha"/>
<feOffset dy="1"/>
<feColorMatrix type="matrix" values="0 0 0 0 0 0 0 0 0 0 0 0 0 0 0 0 0 0 0.35 0"/>
<feBlend mode="normal" in2="BackgroundImageFix" result="effect1_dropShadow_0_68"/>
<feBlend mode="normal" in="SourceGraphic" in2="effect1_dropShadow_0_68" result="shape"/>
</filter>
<filter id="filter7_d_0_68" x="247" y="637" width="31" height="43" filterUnits="userSpaceOnUse" color-interpolation-filters="sRGB">
<feFlood flood-opacity="0" result="BackgroundImageFix"/>
<feColorMatrix in="SourceAlpha" type="matrix" values="0 0 0 0 0 0 0 0 0 0 0 0 0 0 0 0 0 0 127 0" result="hardAlpha"/>
<feOffset dy="1"/>
<feColorMatrix type="matrix" values="0 0 0 0 0 0 0 0 0 0 0 0 0 0 0 0 0 0 0.35 0"/>
<feBlend mode="normal" in2="BackgroundImageFix" result="effect1_dropShadow_0_68"/>
<feBlend mode="normal" in="SourceGraphic" in2="effect1_dropShadow_0_68" result="shape"/>
</filter>
<filter id="filter8_d_0_68" x="210" y="637" width="31" height="43" filterUnits="userSpaceOnUse" color-interpolation-filters="sRGB">
<feFlood flood-opacity="0" result="BackgroundImageFix"/>
<feColorMatrix in="SourceAlpha" type="matrix" values="0 0 0 0 0 0 0 0 0 0 0 0 0 0 0 0 0 0 127 0" result="hardAlpha"/>
<feOffset dy="1"/>
<feColorMatrix type="matrix" values="0 0 0 0 0 0 0 0 0 0 0 0 0 0 0 0 0 0 0.35 0"/>
<feBlend mode="normal" in2="BackgroundImageFix" result="effect1_dropShadow_0_68"/>
<feBlend mode="normal" in="SourceGraphic" in2="effect1_dropShadow_0_68" result="shape"/>
</filter>
<filter id="filter9_d_0_68" x="172" y="637" width="31" height="43" filterUnits="userSpaceOnUse" color-interpolation-filters="sRGB">
<feFlood flood-opacity="0" result="BackgroundImageFix"/>
<feColorMatrix in="SourceAlpha" type="matrix" values="0 0 0 0 0 0 0 0 0 0 0 0 0 0 0 0 0 0 127 0" result="hardAlpha"/>
<feOffset dy="1"/>
<feColorMatrix type="matrix" values="0 0 0 0 0 0 0 0 0 0 0 0 0 0 0 0 0 0 0.35 0"/>
<feBlend mode="normal" in2="BackgroundImageFix" result="effect1_dropShadow_0_68"/>
<feBlend mode="normal" in="SourceGraphic" in2="effect1_dropShadow_0_68" result="shape"/>
</filter>
<filter id="filter10_d_0_68" x="134" y="637" width="31" height="43" filterUnits="userSpaceOnUse" color-interpolation-filters="sRGB">
<feFlood flood-opacity="0" result="BackgroundImageFix"/>
<feColorMatrix in="SourceAlpha" type="matrix" values="0 0 0 0 0 0 0 0 0 0 0 0 0 0 0 0 0 0 127 0" result="hardAlpha"/>
<feOffset dy="1"/>
<feColorMatrix type="matrix" values="0 0 0 0 0 0 0 0 0 0 0 0 0 0 0 0 0 0 0.35 0"/>
<feBlend mode="normal" in2="BackgroundImageFix" result="effect1_dropShadow_0_68"/>
<feBlend mode="normal" in="SourceGraphic" in2="effect1_dropShadow_0_68" result="shape"/>
</filter>
<filter id="filter11_d_0_68" x="97" y="637" width="31" height="43" filterUnits="userSpaceOnUse" color-interpolation-filters="sRGB">
<feFlood flood-opacity="0" result="BackgroundImageFix"/>
<feColorMatrix in="SourceAlpha" type="matrix" values="0 0 0 0 0 0 0 0 0 0 0 0 0 0 0 0 0 0 127 0" result="hardAlpha"/>
<feOffset dy="1"/>
<feColorMatrix type="matrix" values="0 0 0 0 0 0 0 0 0 0 0 0 0 0 0 0 0 0 0.35 0"/>
<feBlend mode="normal" in2="BackgroundImageFix" result="effect1_dropShadow_0_68"/>
<feBlend mode="normal" in="SourceGraphic" in2="effect1_dropShadow_0_68" result="shape"/>
</filter>
<filter id="filter12_d_0_68" x="59" y="637" width="31" height="43" filterUnits="userSpaceOnUse" color-interpolation-filters="sRGB">
<feFlood flood-opacity="0" result="BackgroundImageFix"/>
<feColorMatrix in="SourceAlpha" type="matrix" values="0 0 0 0 0 0 0 0 0 0 0 0 0 0 0 0 0 0 127 0" result="hardAlpha"/>
<feOffset dy="1"/>
<feColorMatrix type="matrix" values="0 0 0 0 0 0 0 0 0 0 0 0 0 0 0 0 0 0 0.35 0"/>
<feBlend mode="normal" in2="BackgroundImageFix" result="effect1_dropShadow_0_68"/>
<feBlend mode="normal" in="SourceGraphic" in2="effect1_dropShadow_0_68" result="shape"/>
</filter>
<filter id="filter13_d_0_68" x="322" y="583" width="31" height="43" filterUnits="userSpaceOnUse" color-interpolation-filters="sRGB">
<feFlood flood-opacity="0" result="BackgroundImageFix"/>
<feColorMatrix in="SourceAlpha" type="matrix" values="0 0 0 0 0 0 0 0 0 0 0 0 0 0 0 0 0 0 127 0" result="hardAlpha"/>
<feOffset dy="1"/>
<feColorMatrix type="matrix" values="0 0 0 0 0 0 0 0 0 0 0 0 0 0 0 0 0 0 0.35 0"/>
<feBlend mode="normal" in2="BackgroundImageFix" result="effect1_dropShadow_0_68"/>
<feBlend mode="normal" in="SourceGraphic" in2="effect1_dropShadow_0_68" result="shape"/>
</filter>
<filter id="filter14_d_0_68" x="284" y="583" width="31" height="43" filterUnits="userSpaceOnUse" color-interpolation-filters="sRGB">
<feFlood flood-opacity="0" result="BackgroundImageFix"/>
<feColorMatrix in="SourceAlpha" type="matrix" values="0 0 0 0 0 0 0 0 0 0 0 0 0 0 0 0 0 0 127 0" result="hardAlpha"/>
<feOffset dy="1"/>
<feColorMatrix type="matrix" values="0 0 0 0 0 0 0 0 0 0 0 0 0 0 0 0 0 0 0.35 0"/>
<feBlend mode="normal" in2="BackgroundImageFix" result="effect1_dropShadow_0_68"/>
<feBlend mode="normal" in="SourceGraphic" in2="effect1_dropShadow_0_68" result="shape"/>
</filter>
<filter id="filter15_d_0_68" x="247" y="583" width="31" height="43" filterUnits="userSpaceOnUse" color-interpolation-filters="sRGB">
<feFlood flood-opacity="0" result="BackgroundImageFix"/>
<feColorMatrix in="SourceAlpha" type="matrix" values="0 0 0 0 0 0 0 0 0 0 0 0 0 0 0 0 0 0 127 0" result="hardAlpha"/>
<feOffset dy="1"/>
<feColorMatrix type="matrix" values="0 0 0 0 0 0 0 0 0 0 0 0 0 0 0 0 0 0 0.35 0"/>
<feBlend mode="normal" in2="BackgroundImageFix" result="effect1_dropShadow_0_68"/>
<feBlend mode="normal" in="SourceGraphic" in2="effect1_dropShadow_0_68" result="shape"/>
</filter>
<filter id="filter16_d_0_68" x="209" y="583" width="31" height="43" filterUnits="userSpaceOnUse" color-interpolation-filters="sRGB">
<feFlood flood-opacity="0" result="BackgroundImageFix"/>
<feColorMatrix in="SourceAlpha" type="matrix" values="0 0 0 0 0 0 0 0 0 0 0 0 0 0 0 0 0 0 127 0" result="hardAlpha"/>
<feOffset dy="1"/>
<feColorMatrix type="matrix" values="0 0 0 0 0 0 0 0 0 0 0 0 0 0 0 0 0 0 0.35 0"/>
<feBlend mode="normal" in2="BackgroundImageFix" result="effect1_dropShadow_0_68"/>
<feBlend mode="normal" in="SourceGraphic" in2="effect1_dropShadow_0_68" result="shape"/>
</filter>
<filter id="filter17_d_0_68" x="172" y="583" width="31" height="43" filterUnits="userSpaceOnUse" color-interpolation-filters="sRGB">
<feFlood flood-opacity="0" result="BackgroundImageFix"/>
<feColorMatrix in="SourceAlpha" type="matrix" values="0 0 0 0 0 0 0 0 0 0 0 0 0 0 0 0 0 0 127 0" result="hardAlpha"/>
<feOffset dy="1"/>
<feColorMatrix type="matrix" values="0 0 0 0 0 0 0 0 0 0 0 0 0 0 0 0 0 0 0.35 0"/>
<feBlend mode="normal" in2="BackgroundImageFix" result="effect1_dropShadow_0_68"/>
<feBlend mode="normal" in="SourceGraphic" in2="effect1_dropShadow_0_68" result="shape"/>
</filter>
<filter id="filter18_d_0_68" x="134" y="583" width="31" height="43" filterUnits="userSpaceOnUse" color-interpolation-filters="sRGB">
<feFlood flood-opacity="0" result="BackgroundImageFix"/>
<feColorMatrix in="SourceAlpha" type="matrix" values="0 0 0 0 0 0 0 0 0 0 0 0 0 0 0 0 0 0 127 0" result="hardAlpha"/>
<feOffset dy="1"/>
<feColorMatrix type="matrix" values="0 0 0 0 0 0 0 0 0 0 0 0 0 0 0 0 0 0 0.35 0"/>
<feBlend mode="normal" in2="BackgroundImageFix" result="effect1_dropShadow_0_68"/>
<feBlend mode="normal" in="SourceGraphic" in2="effect1_dropShadow_0_68" result="shape"/>
</filter>
<filter id="filter19_d_0_68" x="97" y="583" width="31" height="43" filterUnits="userSpaceOnUse" color-interpolation-filters="sRGB">
<feFlood flood-opacity="0" result="BackgroundImageFix"/>
<feColorMatrix in="SourceAlpha" type="matrix" values="0 0 0 0 0 0 0 0 0 0 0 0 0 0 0 0 0 0 127 0" result="hardAlpha"/>
<feOffset dy="1"/>
<feColorMatrix type="matrix" values="0 0 0 0 0 0 0 0 0 0 0 0 0 0 0 0 0 0 0.35 0"/>
<feBlend mode="normal" in2="BackgroundImageFix" result="effect1_dropShadow_0_68"/>
<feBlend mode="normal" in="SourceGraphic" in2="effect1_dropShadow_0_68" result="shape"/>
</filter>
<filter id="filter20_d_0_68" x="59" y="583" width="31" height="43" filterUnits="userSpaceOnUse" color-interpolation-filters="sRGB">
<feFlood flood-opacity="0" result="BackgroundImageFix"/>
<feColorMatrix in="SourceAlpha" type="matrix" values="0 0 0 0 0 0 0 0 0 0 0 0 0 0 0 0 0 0 127 0" result="hardAlpha"/>
<feOffset dy="1"/>
<feColorMatrix type="matrix" values="0 0 0 0 0 0 0 0 0 0 0 0 0 0 0 0 0 0 0.35 0"/>
<feBlend mode="normal" in2="BackgroundImageFix" result="effect1_dropShadow_0_68"/>
<feBlend mode="normal" in="SourceGraphic" in2="effect1_dropShadow_0_68" result="shape"/>
</filter>
<filter id="filter21_d_0_68" x="22" y="583" width="31" height="43" filterUnits="userSpaceOnUse" color-interpolation-filters="sRGB">
<feFlood flood-opacity="0" result="BackgroundImageFix"/>
<feColorMatrix in="SourceAlpha" type="matrix" values="0 0 0 0 0 0 0 0 0 0 0 0 0 0 0 0 0 0 127 0" result="hardAlpha"/>
<feOffset dy="1"/>
<feColorMatrix type="matrix" values="0 0 0 0 0 0 0 0 0 0 0 0 0 0 0 0 0 0 0.35 0"/>
<feBlend mode="normal" in2="BackgroundImageFix" result="effect1_dropShadow_0_68"/>
<feBlend mode="normal" in="SourceGraphic" in2="effect1_dropShadow_0_68" result="shape"/>
</filter>
<filter id="filter22_d_0_68" x="341" y="529" width="31" height="43" filterUnits="userSpaceOnUse" color-interpolation-filters="sRGB">
<feFlood flood-opacity="0" result="BackgroundImageFix"/>
<feColorMatrix in="SourceAlpha" type="matrix" values="0 0 0 0 0 0 0 0 0 0 0 0 0 0 0 0 0 0 127 0" result="hardAlpha"/>
<feOffset dy="1"/>
<feColorMatrix type="matrix" values="0 0 0 0 0 0 0 0 0 0 0 0 0 0 0 0 0 0 0.35 0"/>
<feBlend mode="normal" in2="BackgroundImageFix" result="effect1_dropShadow_0_68"/>
<feBlend mode="normal" in="SourceGraphic" in2="effect1_dropShadow_0_68" result="shape"/>
</filter>
<filter id="filter23_d_0_68" x="303" y="529" width="31" height="43" filterUnits="userSpaceOnUse" color-interpolation-filters="sRGB">
<feFlood flood-opacity="0" result="BackgroundImageFix"/>
<feColorMatrix in="SourceAlpha" type="matrix" values="0 0 0 0 0 0 0 0 0 0 0 0 0 0 0 0 0 0 127 0" result="hardAlpha"/>
<feOffset dy="1"/>
<feColorMatrix type="matrix" values="0 0 0 0 0 0 0 0 0 0 0 0 0 0 0 0 0 0 0.35 0"/>
<feBlend mode="normal" in2="BackgroundImageFix" result="effect1_dropShadow_0_68"/>
<feBlend mode="normal" in="SourceGraphic" in2="effect1_dropShadow_0_68" result="shape"/>
</filter>
<filter id="filter24_d_0_68" x="266" y="529" width="31" height="43" filterUnits="userSpaceOnUse" color-interpolation-filters="sRGB">
<feFlood flood-opacity="0" result="BackgroundImageFix"/>
<feColorMatrix in="SourceAlpha" type="matrix" values="0 0 0 0 0 0 0 0 0 0 0 0 0 0 0 0 0 0 127 0" result="hardAlpha"/>
<feOffset dy="1"/>
<feColorMatrix type="matrix" values="0 0 0 0 0 0 0 0 0 0 0 0 0 0 0 0 0 0 0.35 0"/>
<feBlend mode="normal" in2="BackgroundImageFix" result="effect1_dropShadow_0_68"/>
<feBlend mode="normal" in="SourceGraphic" in2="effect1_dropShadow_0_68" result="shape"/>
</filter>
<filter id="filter25_d_0_68" x="228" y="529" width="31" height="43" filterUnits="userSpaceOnUse" color-interpolation-filters="sRGB">
<feFlood flood-opacity="0" result="BackgroundImageFix"/>
<feColorMatrix in="SourceAlpha" type="matrix" values="0 0 0 0 0 0 0 0 0 0 0 0 0 0 0 0 0 0 127 0" result="hardAlpha"/>
<feOffset dy="1"/>
<feColorMatrix type="matrix" values="0 0 0 0 0 0 0 0 0 0 0 0 0 0 0 0 0 0 0.35 0"/>
<feBlend mode="normal" in2="BackgroundImageFix" result="effect1_dropShadow_0_68"/>
<feBlend mode="normal" in="SourceGraphic" in2="effect1_dropShadow_0_68" result="shape"/>
</filter>
<filter id="filter26_d_0_68" x="191" y="529" width="31" height="43" filterUnits="userSpaceOnUse" color-interpolation-filters="sRGB">
<feFlood flood-opacity="0" result="BackgroundImageFix"/>
<feColorMatrix in="SourceAlpha" type="matrix" values="0 0 0 0 0 0 0 0 0 0 0 0 0 0 0 0 0 0 127 0" result="hardAlpha"/>
<feOffset dy="1"/>
<feColorMatrix type="matrix" values="0 0 0 0 0 0 0 0 0 0 0 0 0 0 0 0 0 0 0.35 0"/>
<feBlend mode="normal" in2="BackgroundImageFix" result="effect1_dropShadow_0_68"/>
<feBlend mode="normal" in="SourceGraphic" in2="effect1_dropShadow_0_68" result="shape"/>
</filter>
<filter id="filter27_d_0_68" x="153" y="529" width="31" height="43" filterUnits="userSpaceOnUse" color-interpolation-filters="sRGB">
<feFlood flood-opacity="0" result="BackgroundImageFix"/>
<feColorMatrix in="SourceAlpha" type="matrix" values="0 0 0 0 0 0 0 0 0 0 0 0 0 0 0 0 0 0 127 0" result="hardAlpha"/>
<feOffset dy="1"/>
<feColorMatrix type="matrix" values="0 0 0 0 0 0 0 0 0 0 0 0 0 0 0 0 0 0 0.35 0"/>
<feBlend mode="normal" in2="BackgroundImageFix" result="effect1_dropShadow_0_68"/>
<feBlend mode="normal" in="SourceGraphic" in2="effect1_dropShadow_0_68" result="shape"/>
</filter>
<filter id="filter28_d_0_68" x="116" y="529" width="31" height="43" filterUnits="userSpaceOnUse" color-interpolation-filters="sRGB">
<feFlood flood-opacity="0" result="BackgroundImageFix"/>
<feColorMatrix in="SourceAlpha" type="matrix" values="0 0 0 0 0 0 0 0 0 0 0 0 0 0 0 0 0 0 127 0" result="hardAlpha"/>
<feOffset dy="1"/>
<feColorMatrix type="matrix" values="0 0 0 0 0 0 0 0 0 0 0 0 0 0 0 0 0 0 0.35 0"/>
<feBlend mode="normal" in2="BackgroundImageFix" result="effect1_dropShadow_0_68"/>
<feBlend mode="normal" in="SourceGraphic" in2="effect1_dropShadow_0_68" result="shape"/>
</filter>
<filter id="filter29_d_0_68" x="78" y="529" width="31" height="43" filterUnits="userSpaceOnUse" color-interpolation-filters="sRGB">
<feFlood flood-opacity="0" result="BackgroundImageFix"/>
<feColorMatrix in="SourceAlpha" type="matrix" values="0 0 0 0 0 0 0 0 0 0 0 0 0 0 0 0 0 0 127 0" result="hardAlpha"/>
<feOffset dy="1"/>
<feColorMatrix type="matrix" values="0 0 0 0 0 0 0 0 0 0 0 0 0 0 0 0 0 0 0.35 0"/>
<feBlend mode="normal" in2="BackgroundImageFix" result="effect1_dropShadow_0_68"/>
<feBlend mode="normal" in="SourceGraphic" in2="effect1_dropShadow_0_68" result="shape"/>
</filter>
<filter id="filter30_d_0_68" x="41" y="529" width="31" height="43" filterUnits="userSpaceOnUse" color-interpolation-filters="sRGB">
<feFlood flood-opacity="0" result="BackgroundImageFix"/>
<feColorMatrix in="SourceAlpha" type="matrix" values="0 0 0 0 0 0 0 0 0 0 0 0 0 0 0 0 0 0 127 0" result="hardAlpha"/>
<feOffset dy="1"/>
<feColorMatrix type="matrix" values="0 0 0 0 0 0 0 0 0 0 0 0 0 0 0 0 0 0 0.35 0"/>
<feBlend mode="normal" in2="BackgroundImageFix" result="effect1_dropShadow_0_68"/>
<feBlend mode="normal" in="SourceGraphic" in2="effect1_dropShadow_0_68" result="shape"/>
</filter>
<filter id="filter31_d_0_68" x="3" y="529" width="31" height="43" filterUnits="userSpaceOnUse" color-interpolation-filters="sRGB">
<feFlood flood-opacity="0" result="BackgroundImageFix"/>
<feColorMatrix in="SourceAlpha" type="matrix" values="0 0 0 0 0 0 0 0 0 0 0 0 0 0 0 0 0 0 127 0" result="hardAlpha"/>
<feOffset dy="1"/>
<feColorMatrix type="matrix" values="0 0 0 0 0 0 0 0 0 0 0 0 0 0 0 0 0 0 0.35 0"/>
<feBlend mode="normal" in2="BackgroundImageFix" result="effect1_dropShadow_0_68"/>
<feBlend mode="normal" in="SourceGraphic" in2="effect1_dropShadow_0_68" result="shape"/>
</filter>
<clipPath id="clip0_0_68">
<rect width="375" height="812" fill="white"/>
</clipPath>
</defs>
</svg>